<?xml version="1.0" encoding="utf-8"?>
<svg style="display: none;" xmlns="http://www.w3.org/2000/svg" xmlns:bx="https://boxy-svg.com">
  <defs>
    <pattern id="pattern-0" x="0" y="0" width="25" height="25" patternUnits="userSpaceOnUse" viewBox="0 0 100 100">
      <rect x="0" y="0" width="50" height="100" style="fill: black;"/>
    </pattern>
  </defs>
  <symbol id="close" viewBox="0 0 30 30">
    <path d="M15.71,15l4.15-4.15a.5.5,0,0,0-.71-.71L15,14.29l-4.15-4.15a.5.5,0,1,0-.71.71L14.29,15l-4.15,4.15a.5.5,0,1,0,.71.71L15,15.71l4.15,4.15a.5.5,0,1,0,.71-.71Z" style="fill: currentcolor;"/>
  </symbol>
  <symbol id="maximize" viewBox="0 0 30 30">
    <path d="M20,20H10V10H20Zm-9-1h8V11H11Z" style="fill: currentcolor;"/>
  </symbol>
  <symbol id="restore" viewBox="0 0 30 30">
    <path d="M9,21h8V13H9Zm1-7h6v6H10Zm3-5v3h1V10h6v6H18v1h3V9Z" style="fill: currentcolor;"/>
  </symbol>
  <symbol id="minimize" viewBox="0 0 30 30">
    <rect x="10" y="19" width="10" height="1" style="fill: currentcolor;"/>
  </symbol>
  <symbol id="support" viewBox="0 0 30 30">
    <rect x="13.5" y="19" width="2" height="2" style="fill: currentcolor;"/>
    <path d="M16.5,9H12v1h4.5A1.5,1.5,0,0,1,18,11.5v1A1.5,1.5,0,0,1,16.5,14H14v3h1V15h1.5A2.5,2.5,0,0,0,19,12.5v-1A2.5,2.5,0,0,0,16.5,9Z" style="fill: currentcolor;"/>
  </symbol>
  <symbol id="settings" viewBox="0 0 30 30">
    <path d="M22,16.3V13.7H19.81a4.94,4.94,0,0,0-.49-1.18L20.87,11,19,9.13l-1.55,1.55a5,5,0,0,0-1.18-.49V8H13.7v2.19a5,5,0,0,0-1.18.49L11,9.13,9.13,11l1.55,1.55a5,5,0,0,0-.49,1.18H8v2.6h2.19a5,5,0,0,0,.49,1.18L9.13,19,11,20.87l1.55-1.55a4.94,4.94,0,0,0,1.18.49V22h2.6V19.81a4.94,4.94,0,0,0,1.18-.49L19,20.87,20.87,19l-1.55-1.55a4.94,4.94,0,0,0,.49-1.18Zm-7,1.45A2.75,2.75,0,1,1,17.75,15,2.75,2.75,0,0,1,15,17.75Z" style="fill: currentcolor;"/>
  </symbol>
  <symbol id="resize" viewBox="0 0 100 100">
    <defs>
      <bx:grid x="0" y="0" width="49.98" height="49.98"/>
    </defs>
    <path d="M 49.98 99.96 L 99.96 49.98 L 99.96 99.96 L 49.98 99.96 Z" style="fill: currentcolor;"/>
  </symbol>
  <symbol id="discord" viewBox="0 0 30 30">
    <path d="M 13.3 13.83 C 12.333 13.761 11.653 14.765 12.077 15.637 C 12.5 16.51 13.71 16.596 14.253 15.793 C 14.394 15.586 14.469 15.341 14.47 15.09 C 14.498 14.418 13.972 13.852 13.3 13.83 Z M 17.47 13.83 C 16.503 13.761 15.823 14.765 16.247 15.637 C 16.67 16.51 17.88 16.596 18.423 15.793 C 18.564 15.586 18.639 15.341 18.64 15.09 C 18.668 14.418 18.142 13.852 17.47 13.83 Z M 23 4.32 L 7.71 4.32 C 6.418 4.32 5.37 5.368 5.37 6.66 L 5.37 22 C 5.37 23.291 6.419 24.336 7.71 24.33 L 20.71 24.33 L 20.11 22.24 L 25.37 27 L 25.37 6.66 C 25.37 5.356 24.304 4.303 23 4.32 Z M 18.59 19.12 L 17.83 18.2 C 18.656 18.009 19.388 17.535 19.9 16.86 C 19.49 17.129 19.05 17.351 18.59 17.52 C 18.08 17.739 17.546 17.9 17 18 C 16.009 18.191 14.991 18.191 14 18 C 13.426 17.889 12.864 17.725 12.32 17.51 C 12.034 17.405 11.757 17.278 11.49 17.13 L 11.38 17.07 L 11.38 17.07 C 11.17 16.95 11.06 16.87 11.06 16.87 C 11.55 17.536 12.258 18.01 13.06 18.21 L 12.29 19.15 C 10.897 19.195 9.575 18.537 8.77 17.4 C 8.808 15.101 9.368 12.84 10.41 10.79 C 11.334 10.075 12.454 9.66 13.62 9.6 L 13.74 9.74 C 12.645 10.011 11.621 10.516 10.74 11.22 L 11.42 10.89 C 12.237 10.519 13.108 10.279 14 10.18 L 14.19 10.18 C 14.957 10.089 15.733 10.089 16.5 10.18 C 17.705 10.322 18.873 10.692 19.94 11.27 C 19.11 10.577 18.142 10.069 17.1 9.78 L 17.26 9.6 C 18.426 9.66 19.546 10.075 20.47 10.79 C 21.512 12.84 22.072 15.101 22.11 17.4 C 21.301 18.513 19.996 19.156 18.62 19.12 Z" style="fill: currentcolor;"/>
  </symbol>
  <symbol id="play" viewBox="0 0 100 100">
    <path d="M 37.609 33.349 L 37.609 66.736 L 63.841 50.043 Z" style="fill: currentcolor;"/>
    <defs>
      <bx:grid x="0" y="0" width="33.368" height="33.368"/>
    </defs>
  </symbol>
  <symbol id="pause" viewBox="0 0 100 100">
    <path d="M 36.287 66.574 L 45.819 66.574 L 45.819 33.213 L 36.287 33.213 L 36.287 66.574 Z M 55.351 33.213 L 55.351 66.574 L 64.882 66.574 L 64.882 33.213 L 55.351 33.213 Z" style="fill: currentcolor;"/>
    <defs>
      <bx:grid x="0" y="0" width="33.287" height="33.287"/>
    </defs>
  </symbol>
  <symbol id="stop" viewBox="0 0 100 100">
    <path d="M 33.358 33.345 L 66.69 33.345 L 66.69 66.677 L 33.358 66.677 Z" style="fill: currentcolor;"/>
    <defs>
      <bx:grid x="0" y="0" width="33.345" height="33.345"/>
    </defs>
  </symbol>
  <symbol id="share" viewBox="0 0 100 100">
    <path d="M 59.338 56.802 C 58.07 56.802 56.933 57.302 56.065 58.087 L 44.157 51.157 C 44.241 50.772 44.308 50.389 44.308 49.988 C 44.308 49.587 44.241 49.203 44.157 48.819 L 55.931 41.954 C 56.833 42.789 58.019 43.308 59.338 43.308 C 62.111 43.308 64.348 41.069 64.348 38.298 C 64.348 35.526 62.111 33.287 59.338 33.287 C 56.565 33.287 54.328 35.526 54.328 38.298 C 54.328 38.699 54.395 39.082 54.478 39.467 L 42.705 46.33 C 41.802 45.496 40.617 44.977 39.298 44.977 C 36.526 44.977 34.287 47.216 34.287 49.988 C 34.287 52.76 36.526 54.998 39.298 54.998 C 40.617 54.998 41.802 54.48 42.705 53.644 L 54.595 60.592 C 54.511 60.944 54.462 61.31 54.462 61.678 C 54.462 64.366 56.648 66.554 59.338 66.554 C 62.027 66.554 64.214 64.366 64.214 61.678 C 64.214 58.989 62.027 56.802 59.338 56.802 Z" style="fill: currentcolor;"/>
    <defs>
      <bx:grid x="0" y="0" width="33.287" height="33.287"/>
    </defs>
  </symbol>
  <symbol id="upload" viewBox="0 0 100 100">
    <path d="M 80.494 42.161 C 77.661 27.79 65.039 17 49.881 17 C 37.843 17 27.388 23.832 22.179 33.826 C 9.643 35.161 -0.102 45.783 -0.102 58.651 C -0.102 72.441 11.101 83.644 24.891 83.644 L 79.036 83.644 C 90.529 83.644 99.861 74.315 99.861 62.818 C 99.861 51.822 91.322 42.909 80.494 42.161 Z M 58.21 54.489 L 58.21 71.147 L 41.549 71.147 L 41.549 54.489 L 29.053 54.489 L 49.881 33.661 L 70.706 54.489 L 58.21 54.489 Z" style="fill: currentcolor;"/>
    <defs>
      <bx:grid x="0" y="0" width="33.287" height="33.287"/>
    </defs>
  </symbol>
  <symbol id="kill" viewBox="0 0 100 100">
    <g transform="matrix(0.540002, 0, 0, 0.540002, -54.108974, -34.11013)" style="">
      <circle style="fill: none; stroke: currentcolor; stroke-width: 7px;" cx="192.932" cy="155.667" r="57.672"/>
      <circle style="stroke: currentcolor; stroke-width: 7px; fill: none;" cx="193.168" cy="155.948" r="26.619"/>
      <path style="stroke: currentcolor; stroke-width: 7px; stroke-linecap: round;" d="M 193.131 70.268 L 193.131 241.489"/>
      <path style="stroke: currentcolor; stroke-width: 7px; stroke-linecap: round;" d="M 192.932 70.055 L 192.932 242.47" transform="matrix(-0.000338, 1, -1, -0.000338, 349.259714, -36.616675)"/>
    </g>
    <defs>
      <bx:grid x="0" y="0" width="6.275" height="6.275"/>
    </defs>
  </symbol>
  <symbol id="death" viewBox="0 0 100 100">
    <g transform="matrix(0.101898, 0, 0, 0.101898, -0.97364, -1.018694)" style="">
      <g transform="translate(0.000000,512.000000) scale(0.100000,-0.100000)">
        <path d="M4538.4,4999.8c-613.5-101.9-1107.7-357.7-1550-798.1c-248.1-250-409.6-476.9-555.8-778.9c-230.8-482.7-338.5-1086.6-290.4-1609.7c67.3-707.7,348.1-1188.5,1002-1705.8c111.5-88.5,217.3-173.1,236.5-186.6c28.8-25,32.7-71.2,32.7-438.5v-409.6l132.7-111.5c73.1-61.5,159.6-130.8,192.3-150l59.6-38.5V-962v265.4l105.8-103.8l105.8-103.9v-225v-225L4150-1412c182.7-76.9,432.7-138.5,605.8-151.9l138.5-11.5v330.8v328.9H5000h105.8v-326.9v-326.9h82.7c117.3,0,401.9,63.5,580.8,128.8l153.8,55.8l5.8,240.4l5.8,240.4l103.9,103.9l105.8,103.8v-282.7v-284.6l111.5,78.9c61.5,42.3,161.6,121.2,221.2,175l109.6,98.1v405.8v407.7l159.6,119.2c736.6,550,1040.4,1042.3,1109.6,1796.2c50,536.6-61.5,1134.6-298.1,1625c-136.5,284.6-303.9,515.4-548.1,759.6c-401.9,403.9-853.9,650-1423.1,777C5390.4,5022.8,4750,5034.4,4538.4,4999.8z M4336.5,1988.1c353.9-57.7,500-259.6,448.1-623.1c-50-353.8-307.7-659.6-642.3-763.5c-157.7-50-396.2-48.1-557.7,1.9c-384.6,117.3-651.9,478.9-651.9,875c0,301.9,134.6,455.8,442.3,507.7C3523,2009.3,4186.5,2011.2,4336.5,1988.1z M6605.8,1986.2c348.1-55.8,476.9-213.5,455.8-553.9c-11.6-205.8-65.4-350-184.6-507.7C6698.1,691.9,6434.6,565,6134.6,565c-276.9,0-484.6,90.4-680.8,298.1c-246.2,261.5-325,696.2-167.3,934.6c59.6,88.5,209.6,165.4,367.3,188.5C5819.2,2009.3,6457.7,2011.2,6605.8,1986.2z M4884.6,170.8c130.8-128.8-44.2-415.4-259.6-421.2c-190.4-3.9-215.4,215.4-44.2,376.9C4686.5,228.5,4811.5,245.8,4884.6,170.8z M5311.6,197.7c121.2-46.1,217.3-178.8,217.3-301.9c0-136.6-115.4-188.5-259.6-119.2c-111.5,53.8-184.6,150-196.2,257.7c-9.6,73.1-3.8,92.3,38.5,134.6C5165.4,222.7,5225,230.4,5311.6,197.7z" style="fill: currentcolor;"/>
        <path d="M1376.8-19.6c-215.4-76.9-332.7-309.6-284.6-561.6c15.4-78.8,15.4-80.8-50-92.3C938.3-692.7,805.6-788.9,749.9-885c-146.2-251.9-40.4-544.2,244.2-677c111.5-51.9,138.5-55.8,332.7-53.8c173.1,0,232.7,7.7,323.1,44.2c61.5,25,125,38.5,140.4,32.7c17.3-5.8,557.7-319.2,1203.9-696.2l1171.2-686.5l-282.7-167.3L3598-3256.3l-80.8,34.6c-290.4,123.1-673.1,80.8-861.6-94.2c-80.8-76.9-146.2-226.9-146.2-342.3c0-198.1,169.2-415.4,348.1-442.3l76.9-13.5l-15.4-78.9c-48.1-250,57.7-471.2,267.3-557.7c100-42.3,275-38.5,375,7.7c103.8,46.2,263.5,194.2,326.9,303.8c59.6,101.9,121.2,292.3,121.2,378.9c0,48.1,13.5,73.1,53.8,101.9c65.4,44.2,880.8,521.2,919.3,536.6c13.5,5.8,223.1-105.8,463.5-246.2c561.5-326.9,544.2-313.5,544.2-392.3c0-86.5,61.6-276.9,121.2-378.9c63.5-109.6,223.1-257.7,326.9-303.8c105.8-48.1,284.6-50,388.5-1.9c42.3,19.2,107.7,69.2,146.2,111.5c107.7,119.2,142.3,261.5,107.7,440.4l-15.4,78.9l75,11.5c242.3,40.4,413.5,359.6,321.2,601.9c-121.2,317.3-580.8,448.1-977,278.9l-80.8-34.6l-282.7,165.4c-155.8,90.4-276.9,171.1-269.2,176.9c7.7,7.7,544.2,323.1,1192.3,701.9l1178.9,686.6l128.9-46.2c105.8-38.5,165.4-46.1,330.8-46.1c182.7,0,213.5,5.8,323.1,55.8c284.6,132.7,390.4,425,244.2,677c-57.7,100-194.2,196.2-301.9,211.5c-67.3,11.6-69.2,15.4-50,63.5c9.6,26.9,19.2,98.1,19.2,157.7c5.8,330.8-350,559.6-651.9,421.2C8161.6-77.3,8002-225.4,7938.6-335c-59.6-100-121.2-292.3-121.2-376.9c0-36.5-13.5-75-34.6-92.3C7727-852.4,5026.9-2421.6,5000-2421.6c-26.9,0-2727,1569.3-2782.8,1617.4c-21.1,17.3-34.6,55.8-34.6,92.3c0,94.2-65.4,284.6-132.7,390.4c-78.8,121.2-211.5,244.2-315.4,292.3C1642.2,11.2,1476.8,16.9,1376.8-19.6z" style="fill: currentcolor;"/>
      </g>
    </g>
    <defs>
      <bx:grid x="0" y="0" width="33.287" height="33.287"/>
    </defs>
  </symbol>
</svg>